<!DOCTYPE svg PUBLIC "-//W3C//DTD SVG 1.1//EN" "http://www.w3.org/Graphics/SVG/1.1/DTD/svg11.dtd">
<!-- Uploaded to: SVG Repo, www.svgrepo.com, Transformed by: SVG Repo Mixer Tools -->
<svg width="800px" height="800px" viewBox="0 0 24 24" fill="none" xmlns="http://www.w3.org/2000/svg">
<g id="SVGRepo_bgCarrier" stroke-width="0"/>
<g id="SVGRepo_tracerCarrier" stroke-linecap="round" stroke-linejoin="round"/>
<g id="SVGRepo_iconCarrier"> <path d="M10 17C10.5523 17 11 16.5523 11 16C11 15.4477 10.5523 15 10 15C9.44772 15 9 15.4477 9 16C9 16.5523 9.44772 17 10 17Z" fill="#0e0e14"/> <path d="M15 18C15 18.5523 14.5523 19 14 19C13.4477 19 13 18.5523 13 18C13 17.4477 13.4477 17 14 17C14.5523 17 15 17.4477 15 18Z" fill="#0e0e14"/> <path fill-rule="evenodd" clip-rule="evenodd" d="M15 3V7.58152C17.9318 8.76829 20 11.6426 20 15C20 19.4183 16.4183 23 12 23C7.58172 23 4 19.4183 4 15C4 11.6426 6.06817 8.76829 9 7.58152V3H8C7.44772 3 7 2.55228 7 2C7 1.44772 7.44772 1 8 1H16C16.5523 1 17 1.44772 17 2C17 2.55228 16.5523 3 16 3H15ZM9.75043 9.43539L10.3752 9.18249C10.7529 9.02962 11 8.66295 11 8.25555V3H13V8.25555C13 8.66295 13.2471 9.02962 13.6248 9.18249L14.2496 9.43539C15.1075 9.78268 15.8661 10.3221 16.4726 11L7.52739 11C8.13388 10.3221 8.89249 9.78268 9.75043 9.43539ZM6.3414 13C6.12025 13.6258 6 14.2991 6 15C6 18.3137 8.68629 21 12 21C15.3137 21 18 18.3137 18 15C18 14.2991 17.8798 13.6258 17.6586 13L6.3414 13Z" fill="#0e0e14"/> </g>
</svg>