<?xml version="1.0" encoding="iso-8859-1"?>
<!-- Uploaded to: SVG Repo, www.svgrepo.com, Generator: SVG Repo Mixer Tools -->
<svg height="800px" width="800px" version="1.1" id="Layer_1" xmlns="http://www.w3.org/2000/svg" xmlns:xlink="http://www.w3.org/1999/xlink" 
	 viewBox="0 0 512 512" xml:space="preserve">
<g>
	<polygon style="fill:#F9F8F9;" points="503.983,311.048 448.935,311.048 448.935,256 	"/>
	<polygon style="fill:#F9F8F9;" points="255.466,63.065 200.952,63.065 200.952,8.551 	"/>
</g>
<g>
	<polygon style="fill:#5CC4E0;" points="8.017,8.017 8.017,503.983 503.983,503.983 503.983,256 256,256 256,8.017 	"/>
	<polygon style="fill:#5CC4E0;" points="255.466,8.551 200.952,8.551 255.466,63.065 	"/>
</g>
<polygon style="fill:#FFFFFF;" points="200.952,63.065 255.466,63.065 200.952,8.551 "/>
<polygon style="fill:#FF675C;" points="255.466,63.065 200.952,8.551 200.418,8.017 8.017,8.017 8.017,256 256,256 256,63.599 "/>
<polygon style="fill:#DB3D5A;" points="8.017,256 256,256 8.017,8.017 "/>
<polygon style="fill:#FAEC8E;" points="448.935,256 256,256 256,503.983 503.983,503.983 503.983,311.048 "/>
<polygon style="fill:#FBC96C;" points="256,503.983 503.983,503.983 256,256 "/>
<g>
	<polygon style="fill:#FFFFFF;" points="448.935,311.048 503.983,311.048 448.935,256 	"/>
	<path style="fill:#FFFFFF;" d="M104.217,332.426c8.21,0,16.337,2.398,23.503,6.934c3.74,2.367,8.692,1.256,11.062-2.485
		c2.369-3.741,1.256-8.693-2.485-11.062c-9.737-6.162-20.828-9.42-32.08-9.42c-36.247,0-65.737,33.326-65.737,74.288
		s29.49,74.288,65.737,74.288c11.251,0,22.343-3.258,32.08-9.42c3.741-2.369,4.854-7.321,2.485-11.062
		c-2.37-3.74-7.32-4.853-11.062-2.485c-7.166,4.536-15.293,6.934-23.503,6.934c-27.408,0-49.704-26.132-49.704-58.255
		S76.81,332.426,104.217,332.426z"/>
	<path style="fill:#FFFFFF;" d="M185.453,376.251c-24.459,0-44.359,19.9-44.359,44.359c0,24.459,19.9,44.359,44.359,44.359
		s44.359-19.9,44.359-44.359C229.812,396.15,209.913,376.251,185.453,376.251z M185.453,448.935
		c-15.619,0-28.326-12.707-28.326-28.326c0-15.619,12.707-28.326,28.326-28.326s28.326,12.707,28.326,28.326
		C213.779,436.228,201.072,448.935,185.453,448.935z"/>
	<path style="fill:#FFFFFF;" d="M439.85,324.944c-4.428,0-8.017,3.588-8.017,8.017v99.378L325.993,318.94
		c-2.246-2.407-5.736-3.194-8.799-1.988c-3.063,1.208-5.077,4.164-5.077,7.459v132.543c0,4.428,3.588,8.017,8.017,8.017
		c4.428,0,8.017-3.588,8.017-8.017V344.747l105.84,113.399c2.246,2.408,5.737,3.196,8.799,1.988
		c3.063-1.208,5.077-4.164,5.077-7.459V332.959C447.866,328.532,444.278,324.944,439.85,324.944z"/>
	<path style="fill:#FFFFFF;" d="M110.63,196.676c-4.428,0-8.017,3.588-8.017,8.017s3.588,8.017,8.017,8.017h42.756
		c4.428,0,8.017-3.588,8.017-8.017s-3.588-8.017-8.017-8.017h-13.361V67.34h13.361c4.428,0,8.017-3.588,8.017-8.017
		s-3.588-8.017-8.017-8.017H110.63c-4.428,0-8.017,3.588-8.017,8.017s3.588,8.017,8.017,8.017h13.361v129.336H110.63z"/>
</g>
<path d="M512,256c0-4.428-3.588-8.017-8.017-8.017h-138.36c-4.428,0-8.017,3.588-8.017,8.017c0,4.428,3.588,8.017,8.017,8.017
	h75.295v47.031c0,4.428,3.588,8.017,8.017,8.017h47.031v176.902h-231.95v-231.95h62.53c4.428,0,8.017-3.588,8.017-8.017
	c0-4.428-3.588-8.017-8.017-8.017h-62.53V9.086c0-0.09-0.011-0.177-0.014-0.266c0.003-0.088,0.014-0.173,0.014-0.261
	c0.004-4.427-3.582-8.554-8.009-8.559H96.383c-0.002,0-0.005,0-0.007,0c-4.424,0-8.012,3.967-8.017,8.392
	c-0.004,4.427,3.582,8.02,8.009,8.024l96.567,0.092v46.557c0,4.428,3.588,8.017,8.017,8.017h47.031v176.902H16.033V16.033H62.53
	c4.428,0,8.017-3.588,8.017-8.017S66.959,0,62.53,0H8.017C3.588,0,0,3.588,0,8.017v495.967C0,508.412,3.588,512,8.017,512h495.967
	c4.428,0,8.017-3.588,8.017-8.017C512,503.983,512,256.363,512,256z M247.983,43.844l-27.577-27.309l27.577,0.027V43.844z
	 M208.969,27.906l27.142,27.142h-27.142V27.906z M16.033,264.017h231.95v231.95H16.033V264.017z M495.967,291.694l-27.677-27.677
	h27.677V291.694z M456.952,275.354l27.677,27.677h-27.677V275.354z"/>
</svg>