<?xml version="1.0" encoding="iso-8859-1"?>
<!-- Uploaded to: SVG Repo, www.svgrepo.com, Generator: SVG Repo Mixer Tools -->
<svg fill="#000000" height="800px" width="800px" version="1.1" id="Layer_1" xmlns="http://www.w3.org/2000/svg" xmlns:xlink="http://www.w3.org/1999/xlink" 
	 viewBox="0 0 512 512" xml:space="preserve">
<g>
	<g>
		<path d="M127.72,442.001c-7.166,4.536-15.293,6.934-23.503,6.934c-27.407,0-49.704-26.132-49.704-58.255
			s22.296-58.255,49.704-58.255c8.21,0,16.337,2.398,23.503,6.934c3.74,2.367,8.692,1.256,11.062-2.485
			c2.369-3.741,1.256-8.693-2.485-11.062c-9.737-6.162-20.828-9.42-32.08-9.42c-36.247,0-65.737,33.326-65.737,74.288
			c0,40.962,29.49,74.288,65.737,74.288c11.251,0,22.343-3.258,32.08-9.42c3.741-2.369,4.854-7.321,2.485-11.062
			C136.412,440.747,131.462,439.634,127.72,442.001z"/>
	</g>
</g>
<g>
	<g>
		<path d="M185.453,376.251c-24.459,0-44.359,19.9-44.359,44.359s19.9,44.359,44.359,44.359c24.46,0,44.359-19.9,44.359-44.359
			S209.913,376.251,185.453,376.251z M185.453,448.935c-15.619,0-28.326-12.707-28.326-28.326s12.707-28.326,28.326-28.326
			c15.619,0,28.326,12.707,28.326,28.326S201.072,448.935,185.453,448.935z"/>
	</g>
</g>
<g>
	<g>
		<path d="M439.85,324.943c-4.428,0-8.017,3.588-8.017,8.017v99.378l-105.84-113.399c-2.245-2.406-5.736-3.193-8.799-1.988
			c-3.063,1.208-5.077,4.164-5.077,7.459v132.543c0,4.428,3.588,8.017,8.017,8.017c4.428,0,8.017-3.588,8.017-8.017V344.747
			l105.84,113.399c2.246,2.408,5.737,3.196,8.799,1.988c3.063-1.208,5.077-4.164,5.077-7.459V332.959
			C447.866,328.531,444.278,324.943,439.85,324.943z"/>
	</g>
</g>
<g>
	<g>
		<path d="M153.386,196.676h-13.361V67.34h13.361c4.428,0,8.017-3.588,8.017-8.017c0-4.428-3.588-8.017-8.017-8.017H110.63
			c-4.428,0-8.017,3.588-8.017,8.017c0,4.428,3.588,8.017,8.017,8.017h13.361v129.336H110.63c-4.428,0-8.017,3.588-8.017,8.017
			s3.588,8.017,8.017,8.017h42.756c4.428,0,8.017-3.588,8.017-8.017S157.815,196.676,153.386,196.676z"/>
	</g>
</g>
<g>
	<g>
		<path d="M512,256c0-4.428-3.588-8.017-8.017-8.017h-138.36c-4.428,0-8.017,3.588-8.017,8.017c0,4.428,3.588,8.017,8.017,8.017
			h75.295v47.031c0,4.428,3.588,8.017,8.017,8.017h47.031v176.902h-231.95v-231.95h62.53c4.428,0,8.017-3.588,8.017-8.017
			c0-4.428-3.588-8.017-8.017-8.017h-62.53V9.086c0-0.09-0.011-0.177-0.014-0.266c0.003-0.088,0.014-0.173,0.014-0.261
			c0.004-4.427-3.582-8.02-8.009-8.024L96.383,0.382c-0.002,0-0.005,0-0.007,0c-4.424,0-8.012,3.585-8.017,8.009
			c-0.004,4.427,3.582,8.02,8.009,8.024l96.567,0.092v46.558c0,4.428,3.588,8.017,8.017,8.017h47.031v176.902H16.033V16.033H62.53
			c4.428,0,8.017-3.588,8.017-8.017C70.547,3.588,66.959,0,62.53,0H8.017C3.588,0,0,3.588,0,8.017v495.967
			C0,508.412,3.588,512,8.017,512h495.967c4.428,0,8.017-3.588,8.017-8.017V258.138c0-0.363-0.033-0.718-0.079-1.069
			C511.968,256.718,512,256.363,512,256z M247.983,495.967H16.033v-231.95h231.95V495.967z M208.969,55.048V27.906l27.142,27.142
			H208.969z M247.983,43.844l-27.577-27.309l27.577,0.027V43.844z M456.952,303.031v-27.677l27.677,27.677H456.952z
			 M495.967,291.694l-27.677-27.677h27.677V291.694z"/>
	</g>
</g>
</svg>