<?xml version="1.0" ?>
<!DOCTYPE svg  PUBLIC '-//W3C//DTD SVG 1.1//EN'  'http://www.w3.org/Graphics/SVG/1.1/DTD/svg11.dtd'>
<!-- Uploaded to: SVG Repo, www.svgrepo.com, Generator: SVG Repo Mixer Tools -->
<svg fill="#000000" width="800px" height="800px" viewBox="-1.05 0 6.07 6.07" style="shape-rendering:geometricPrecision; text-rendering:geometricPrecision; image-rendering:optimizeQuality; fill-rule:evenodd; clip-rule:evenodd" version="1.1" xml:space="preserve" xmlns="http://www.w3.org/2000/svg" xmlns:xlink="http://www.w3.org/1999/xlink">
<defs>
<style type="text/css">
   <![CDATA[
    .fil0 {fill:black;fill-rule:nonzero}
   ]]>
  </style>
</defs>
<g id="Layer_x0020_1">
<path class="fil0" d="M2.91 0.6l0 1.72c0.29,0.15 0.54,0.37 0.72,0.65 0.22,0.31 0.35,0.7 0.35,1.11 0,0.55 -0.23,1.05 -0.59,1.41 -0.36,0.36 -0.85,0.58 -1.4,0.58 -0.55,0 -1.05,-0.22 -1.41,-0.58 -0.36,-0.36 -0.58,-0.86 -0.58,-1.41 0,-0.41 0.13,-0.79 0.34,-1.11l0 -0.01c0.19,-0.27 0.44,-0.49 0.73,-0.64l0 -1.72 -0.39 0 0 -0.6 2.62 0 0 0.6 -0.39 0zm-1.04 4.23c0.09,0 0.17,0.07 0.17,0.17 0,0.09 -0.08,0.16 -0.17,0.16 -0.09,0 -0.17,-0.07 -0.17,-0.16 0,-0.1 0.08,-0.17 0.17,-0.17zm-0.6 -0.58c0.18,0 0.33,0.15 0.33,0.33 0,0.18 -0.15,0.32 -0.33,0.32 -0.18,0 -0.33,-0.14 -0.33,-0.32 0,-0.18 0.15,-0.33 0.33,-0.33zm0.4 -3.65l0 2.11 -0.19 0.08c-0.27,0.1 -0.49,0.28 -0.64,0.51 -0.16,0.22 -0.24,0.49 -0.24,0.78 0,0.39 0.15,0.74 0.4,0.99 0.26,0.25 0.6,0.41 0.99,0.41 0.38,0 0.73,-0.16 0.98,-0.41 0.26,-0.25 0.41,-0.6 0.41,-0.99 0,-0.29 -0.09,-0.56 -0.24,-0.78l0 0c-0.15,-0.23 -0.38,-0.41 -0.64,-0.51l-0.19 -0.08 0 -2.11 -0.64 0z"/>
</g>
</svg>